<svg xmlns="http://www.w3.org/2000/svg" width="13.04" height="22.197"><g data-name="グループ 8" clip-path="url(&quot;#a&quot;)"><path d="m4.382 11.103 8.304-8.304c.228-.228.354-.533.354-.858 0-.326-.126-.63-.354-.859l-.728-.727A1.204 1.204 0 0 0 11.099 0c-.325 0-.63.126-.858.355L.354 10.24c-.23.23-.355.536-.354.861 0 .327.125.633.354.863l9.878 9.877c.228.229.533.355.858.355.326 0 .63-.126.859-.355l.727-.728a1.216 1.216 0 0 0 0-1.717l-8.294-8.294Z" fill="#fff" fill-rule="evenodd" data-name="パス 7"/></g><defs><clipPath id="a"><path d="M0 0h13.04v22.197H0V0z" data-name="長方形 14"/></clipPath></defs></svg>