<svg xmlns="http://www.w3.org/2000/svg" width="153.177" height="52.413" viewBox="130.412 116.559 153.177 52.413"><g data-name="グループ 1"><path d="m162.952 134.51-4.623 5.584h-2.341l-3.423-5.584h-8.104l3.542 5.584h-11.588l-.9 2.582h17.41l-.42 3.181h-13.808l-.9 2.582h14.408l-.36 3.062h-17.651l-.9 2.582h18.25l-.24 1.74h-8.585l-12.307 12.489h10.326l8.586-10.087h1.68l-1.26 10.747h7.985l1.26-10.747h2.462l5.703 10.087h9.787l-9.006-12.488h-8.645l.24-1.741h18.49l.842-2.582H159.83l.36-3.062h14.229l.84-2.582H160.49l.42-3.181h17.291l.841-2.582h-12.488l5.404-5.584h-9.006Zm-23.955-16.75 3.302 11.647h7.085l-3.243-11.647h-7.144Zm33.981 0-5.763 11.647h7.084l6.303-11.647h-7.624Zm-11.947-1.14-1.861 14.288h-2.162l1.741-14.289h-7.264l-1.741 14.29h-13.93l-.84 2.4h45.809l.78-2.4h-15.009l1.862-14.29h-7.385Z" fill-rule="evenodd" data-name="パス 1"/><path d="m264.977 134.51-4.623 5.584h-2.341l-3.423-5.584h-8.104l3.542 5.584H238.44l-.9 2.582h17.41l-.42 3.181h-13.808l-.9 2.582h14.408l-.36 3.062h-17.651l-.9 2.582h18.25l-.24 1.74h-8.585l-12.307 12.489h10.326l8.586-10.087h1.68l-1.26 10.747h7.985l1.26-10.747h2.462l5.703 10.087h9.787l-9.006-12.488h-8.645l.24-1.741h18.491l.84-2.582h-19.03l.36-3.062h14.228l.84-2.582h-14.769l.42-3.181h17.291l.841-2.582H268.58l5.404-5.584h-9.006Zm-23.955-16.75 3.302 11.647h7.084l-3.242-11.647h-7.144Zm33.981 0-5.763 11.647h7.084l6.303-11.647h-7.624Zm-11.947-1.14-1.861 14.288h-2.162l1.741-14.289h-7.264l-1.741 14.29h-13.93l-.84 2.4h45.809l.78-2.4H268.58l1.861-14.29h-7.384Z" fill-rule="evenodd" data-name="パス 2"/><path d="M193.942 144.116h4.443l-.84 7.205h-4.383l.78-7.205Zm1.021-9.245h4.503l-.78 6.904h-4.504l.781-6.904Zm25.696-6.725 2.642 14.89h-3.902l-1.862 3.182-1.5-3.182h-3.303l5.344-14.89h-6.124l-7.445 18.792 1.621-14.289h-17.89l-4.083 36.323h7.024l.42-3.842h10.747l.66-2.402h-11.107l.36-3.362h10.927l.66-2.402h-11.346l.36-3.302h10.867l.66-5.703h6.604l.54-1.561 2.402 5.943-1.261 2.102-11.527 14.529h8.045l7.385-10.087 4.022 10.087h7.625l-7.805-16.69 3.362-6.304.36 1.981h6.665l-4.323-19.813h-5.824Zm-4.023-10.986-.9 7.204h-7.205l-.84 2.582h23.955l.84-2.582h-9.125l1.02-7.204h-7.745Zm-17.41 4.863 1.8 5.463h-5.342l3.542-5.463Zm-3.483-5.464-10.986 15.07h8.225l1.14-1.742h7.745l.48 1.501h6.725l-4.323-11.106h-4.383l2.402-3.723h-7.025Z" fill-rule="evenodd" data-name="パス 3"/></g></svg>