<svg xmlns="http://www.w3.org/2000/svg" width="36" height="36"><path d="M35.041 5.842 30.132.93c-1.237-1.238-3.388-1.24-4.63.002L3.51 23.141a.823.823 0 0 0-.206.351L.031 34.956a.82.82 0 0 0 1.012 1.013l11.454-3.276a.822.822 0 0 0 .352-.206L35.04 10.474A3.254 3.254 0 0 0 36 8.158c0-.875-.34-1.697-.959-2.316M21.937 6.883l3.011 3.012L9.224 25.619l-1.128-2.258a.819.819 0 0 0-.732-.452h-1.31L21.937 6.883ZM2.01 33.99l1.065-3.73 2.665 2.665-3.73 1.065Zm9.445-2.698L7.54 32.41l-3.95-3.95 1.118-3.915h2.15l1.41 2.82c.08.16.208.288.366.367l2.82 1.41v2.15Zm1.636-1.345v-1.31a.819.819 0 0 0-.452-.733l-2.258-1.128 15.724-15.724 3.012 3.012L13.09 29.947Zm20.796-20.61-3.608 3.575-7.19-7.191 3.572-3.605c.619-.619 1.696-.619 2.314 0l4.91 4.909c.308.309.479.72.479 1.157 0 .437-.17.847-.477 1.154" fill-rule="evenodd" data-name="パス 4"/></svg>